<?xml version="1.0" encoding="UTF-8" standalone="no"?>
<!-- Created with Inkscape (http://www.inkscape.org/) -->

<svg
   width="153mm"
   height="103mm"
   viewBox="0 0 153 103"
   version="1.1"
   id="svg1"
   inkscape:version="1.4.2 (ebf0e940d0, 2025-05-08)"
   sodipodi:docname="cover.svg"
   inkscape:export-filename="cover.png"
   inkscape:export-xdpi="72"
   inkscape:export-ydpi="72"
   xmlns:inkscape="http://www.inkscape.org/namespaces/inkscape"
   xmlns:sodipodi="http://sodipodi.sourceforge.net/DTD/sodipodi-0.dtd"
   xmlns:xlink="http://www.w3.org/1999/xlink"
   xmlns="http://www.w3.org/2000/svg"
   xmlns:svg="http://www.w3.org/2000/svg">
  <sodipodi:namedview
     id="namedview1"
     pagecolor="#ffffff"
     bordercolor="#000000"
     borderopacity="0.25"
     inkscape:showpageshadow="2"
     inkscape:pageopacity="0.0"
     inkscape:pagecheckerboard="0"
     inkscape:deskcolor="#d1d1d1"
     inkscape:document-units="mm"
     inkscape:zoom="1.11125"
     inkscape:cx="325.30934"
     inkscape:cy="165.12936"
     inkscape:window-width="1920"
     inkscape:window-height="1044"
     inkscape:window-x="0"
     inkscape:window-y="0"
     inkscape:window-maximized="1"
     inkscape:current-layer="layer1" />
  <defs
     id="defs1">
    <linearGradient
       id="linearGradient38"
       inkscape:collect="always">
      <stop
         style="stop-color:#00a0ff;stop-opacity:1;"
         offset="0"
         id="stop37" />
      <stop
         style="stop-color:#00a0ff;stop-opacity:1;"
         offset="0.28980529"
         id="stop40" />
      <stop
         style="stop-color:#68cff7;stop-opacity:1;"
         offset="0.28980529"
         id="stop39" />
      <stop
         style="stop-color:#68cff7;stop-opacity:1;"
         offset="1"
         id="stop38" />
    </linearGradient>
    <linearGradient
       id="linearGradient33"
       inkscape:collect="always">
      <stop
         style="stop-color:#00a0ff;stop-opacity:1;"
         offset="0"
         id="stop33" />
      <stop
         style="stop-color:#00a0ff;stop-opacity:0;"
         offset="1"
         id="stop34" />
    </linearGradient>
    <filter
       x="0"
       y="0"
       width="1"
       height="1"
       id="solid">
      <feFlood
         flood-color="white"
         id="feFlood10" />
      <feComposite
         in="SourceGraphic"
         id="feComposite10" />
    </filter>
    <linearGradient
       inkscape:collect="always"
       xlink:href="#linearGradient33"
       id="linearGradient34"
       x1="29.962891"
       y1="59.867187"
       x2="93.962891"
       y2="59.867187"
       gradientUnits="userSpaceOnUse" />
    <linearGradient
       inkscape:collect="always"
       xlink:href="#linearGradient38"
       id="linearGradient37"
       x1="30.962782"
       y1="59.868019"
       x2="92.962784"
       y2="59.868019"
       gradientUnits="userSpaceOnUse" />
  </defs>
  <g
     inkscape:groupmode="layer"
     id="layer7"
     inkscape:label="Layer 3">
    <rect
       style="display:inline;fill:#3e167b;fill-opacity:1;stroke:none;stroke-width:0.36089;stroke-linecap:square;stroke-miterlimit:3;stroke-opacity:1;paint-order:markers stroke fill"
       id="rect7-6-7"
       width="62.320789"
       height="68.930031"
       x="16.464001"
       y="23.871" />
    <rect
       style="display:inline;fill:#067bc0;fill-opacity:1;stroke:none;stroke-width:0.315264;stroke-linecap:square;stroke-miterlimit:3;stroke-opacity:1;paint-order:markers stroke fill"
       id="rect7-6-7-2"
       width="47.558884"
       height="68.930031"
       x="79.083046"
       y="23.871" />
  </g>
  <g
     inkscape:groupmode="layer"
     id="layer5"
     inkscape:label="Layer 2"
     style="display:inline;opacity:1;mix-blend-mode:normal">
    <g
       inkscape:groupmode="layer"
       id="layer11"
       inkscape:label="Layer 7">
      <path
         id="path2"
         style="display:inline;opacity:1;mix-blend-mode:normal;fill:#067bc0;fill-opacity:1;stroke:none;stroke-width:0.672053"
         d="M 91.624382,23.870894 H 65.493677 c 4.290086,2.449448 8.838209,4.89188 12.854384,7.430027 4.348921,-2.53339 8.866061,-4.977263 13.276321,-7.430027 z"
         sodipodi:nodetypes="cccc" />
      <path
         id="path23"
         style="display:inline;opacity:1;mix-blend-mode:normal;fill:#60fdf9;fill-opacity:1;stroke-width:0.672053"
         d="M 28.939836,2.9036987 C 41.124866,9.8920449 53.295159,16.906085 65.493677,23.870894 H 91.624382 C 104.05989,16.954892 116.46016,9.9757842 128.91978,3.1031698 95.594306,2.7557198 62.266471,2.7570317 28.939836,2.9036987 Z"
         sodipodi:nodetypes="ccccc" />
    </g>
    <g
       inkscape:groupmode="layer"
       id="layer9"
       inkscape:label="Layer 5">
      <path
         id="path4"
         style="display:inline;opacity:1;mix-blend-mode:normal;stroke-width:0.672053;fill:#3e167b;fill-opacity:1"
         d="M 78.746098 92.801054 L 73.989282 92.801054 C 75.580228 95.961482 77.170857 99.121861 78.761084 102.28265 C 78.756585 99.109203 78.751527 95.950262 78.746098 92.801054 z " />
      <path
         id="path22"
         style="display:inline;opacity:1;mix-blend-mode:normal;fill:#60fdf9;fill-opacity:1;stroke:none;stroke-width:0.672053"
         d="M 66.421269,23.870894 H 39.360905 c 11.492402,23.001858 23.066801,45.962983 34.628377,68.93016 h 4.756816 C 78.710825,72.342178 78.35077,52.132816 78.359722,31.293287 74.373955,28.708378 70.586408,26.349647 66.421269,23.870894 Z"
         sodipodi:nodetypes="cccccc" />
      <path
         id="path21"
         style="display:inline;opacity:1;mix-blend-mode:normal;stroke-width:0.672053;fill:#3e167b;fill-opacity:1"
         d="M 28.919682 2.9104167 C 32.390756 9.9019686 35.872141 16.88819 39.360905 23.870894 L 66.421269 23.870894 C 54.118278 16.549152 41.229625 9.6475595 28.919682 2.9104167 z " />
    </g>
    <g
       inkscape:groupmode="layer"
       id="layer8"
       inkscape:label="Layer 4">
      <path
         id="path5"
         style="display:inline;opacity:1;mix-blend-mode:normal;stroke-width:0.672053;fill:#067bc0;fill-opacity:1"
         d="m 83.563375,92.801571 h -4.892208 c 0.02807,3.156753 0.05742,6.313497 0.08785,9.470219 1.597216,-3.158273 3.1991,-6.314756 4.804358,-9.470219 z" />
      <path
         id="path18"
         style="display:inline;opacity:1;mix-blend-mode:normal;fill:#3e167b;fill-opacity:1;stroke:none;stroke-width:0.672053"
         d="M 118.31061,23.871411 H 91.256445 c -4.326262,2.441565 -8.634953,4.914105 -12.916524,7.434688 0.02048,20.498827 0.148965,40.997476 0.331246,61.495472 h 4.892208 C 95.228397,69.871575 107.05526,46.995036 118.31061,23.871411 Z"
         sodipodi:nodetypes="cccccc" />
      <path
         id="path17"
         style="display:inline;opacity:1;mix-blend-mode:normal;stroke-width:0.672053;fill:#067bc0;fill-opacity:1"
         d="M 127.97255,3.6163167 C 115.73974,10.37707 103.42878,17.001847 91.256445,23.871411 h 27.054165 c 3.27494,-6.72822 6.50184,-13.477605 9.66194,-20.2550943 z" />
    </g>
  </g>
  <g
     inkscape:label="Layer 1"
     inkscape:groupmode="layer"
     id="layer1">
    <g
       stroke-width="2"
       stroke="#000000"
       font-family="Verdana"
       font-size="12px"
       id="g13"
       inkscape:label="monophyly"
       inkscape:export-filename="monophyly.png"
       inkscape:export-xdpi="300"
       inkscape:export-ydpi="300"
       transform="matrix(0.94800326,0,0,0.94800326,25.969415,2.9536706)">
      <g
         inkscape:groupmode="layer"
         id="layer1-2"
         inkscape:label="branch">
        <g
           id="line10"
           style="opacity:1;stroke-width:1.99999752;stroke-dasharray:none">
          <path
             style="baseline-shift:baseline;display:inline;overflow:visible;fill:url(#linearGradient34);fill-opacity:1;stroke:#000000;stroke-width:2;stroke-dasharray:none;stroke-opacity:1;enable-background:accumulate;stop-color:#000000;stop-opacity:1"
             d="m 70.962891,28.867187 v 20 h 1 1 8 v 18 h -28 v -18 h -2 v 20 h 1 1 13 v 18 h -33 v -18 h -2 v 20 h 1 1 15 v 2 h 2 v -2 h 16 1 1 v -20 h 13 1 1 v -20 h 8 1 1 v -20 h -2 v 18 h -18 v -18 z"
             id="path33" />
          <path
             style="baseline-shift:baseline;display:inline;overflow:visible;opacity:1;fill:#68cff7;stroke:url(#linearGradient37);stroke-width:2;stroke-dasharray:none;enable-background:accumulate;stop-color:#000000;stop-opacity:1;fill-opacity:1"
             d="m 31.962782,87.868019 h 35.000002 m 5,-39.999996 h 20 M 51.96278,67.868019 h 30.000004 m -50.000002,1 v 20 M 91.962784,28.868021 v 20.000002 m -20,-20.000002 v 20.000002 m -20.000004,0 v 19.999996 m -3,20 v 2 M 81.962784,48.868023 v 19.999996 m -15,0 v 20"
             id="path32"
             sodipodi:nodetypes="cccccccccccccccccccc" />
        </g>
      </g>
      <path
         d="m 36.871088,46.407634 c -0.913465,-0.860361 0.969485,-1.546754 1.472291,-2.097491 0.508051,-0.655944 2.462791,-1.286815 1.817161,-2.145361 -1.571235,-1.947942 -1.252291,-4.824547 -0.09147,-6.894607 1.24062,-2.119966 3.680108,-3.243109 6.019857,-3.646599 2.89625,-0.229025 5.859588,0.880751 8.01598,2.802075 1.346877,1.399281 2.490584,3.086433 2.842188,5.029478 0.359906,0.920319 -0.0509,2.49356 1.156429,2.801323 1.001616,0.569033 2.261341,0.499339 3.33837,0.225234 0.973667,-0.779339 1.962409,-1.563176 2.856254,-2.437322 -0.06055,-1.013341 1.469492,-0.816527 0.872809,0.07493 -1.075759,0.865365 -1.888693,2.042092 -2.796558,3.06049 0.958662,0.554852 1.894535,-0.88051 2.78365,-1.21054 0.497304,-0.326645 1.824963,-1.685556 1.883811,-0.38291 -0.910923,0.59688 -1.888616,1.231985 -2.76179,1.941267 -0.925246,0.500718 -1.102895,0.987813 -0.159941,1.507568 -0.35265,0.216596 -1.14802,-0.212215 -0.264811,0.32401 0.856866,0.510774 -0.320888,0.61795 -0.719868,0.214102 -1.826538,0.901139 -3.965723,0.92941 -5.969863,0.827917 -1.285104,-0.187837 -2.411654,-1.01975 -3.756221,-0.802188 -1.753899,0.09004 -3.512131,-0.393867 -5.248346,0.02352 -1.40649,0.165709 -2.815891,-0.477009 -4.212709,-0.07616 -1.356648,0.177445 -2.763134,0.08011 -4.049554,0.606298 -0.985174,0.18689 -2.028402,0.416042 -3.02767,0.254963 z"
         style="fill:#68cff7;fill-opacity:1;stroke:#000000;stroke-width:1.95366768;stroke-opacity:1;paint-order:markers stroke fill;stroke-dasharray:none"
         id="path1-6"
         inkscape:label="snail"
         inkscape:export-filename="snail_shape.png"
         inkscape:export-xdpi="300"
         inkscape:export-ydpi="300" />
      <path
         d="m 51.435135,27.662336 c -0.913465,-0.860361 0.969485,-1.546754 1.472291,-2.097491 0.508051,-0.655944 2.462791,-1.286815 1.817161,-2.145361 -1.571235,-1.947942 -1.252291,-4.824547 -0.09147,-6.894607 1.24062,-2.119966 3.680108,-3.243109 6.019857,-3.646599 2.89625,-0.229025 5.859588,0.880751 8.01598,2.802075 1.346877,1.399281 2.490584,3.086433 2.842188,5.029478 0.359906,0.920319 -0.0509,2.49356 1.156429,2.801323 1.001616,0.569033 2.261341,0.499339 3.33837,0.225234 0.973667,-0.779339 1.962409,-1.563176 2.856254,-2.437322 -0.06055,-1.013341 1.469492,-0.816527 0.872809,0.07493 -1.075759,0.865365 -1.888693,2.042092 -2.796558,3.06049 0.958662,0.554852 1.894535,-0.88051 2.78365,-1.21054 0.497304,-0.326645 1.824963,-1.685556 1.883811,-0.38291 -0.910923,0.59688 -1.888616,1.231985 -2.76179,1.941267 -0.925246,0.500718 -1.102895,0.987813 -0.159941,1.507568 -0.35265,0.216596 -1.14802,-0.212215 -0.264811,0.32401 0.856866,0.510774 -0.320888,0.61795 -0.719868,0.214102 -1.826538,0.901139 -3.965723,0.92941 -5.969863,0.827917 -1.285104,-0.187837 -2.411654,-1.01975 -3.756221,-0.802188 -1.753899,0.09004 -3.512131,-0.393867 -5.248346,0.02352 -1.40649,0.165709 -2.815891,-0.477009 -4.212709,-0.07616 -1.356648,0.177445 -2.763134,0.08011 -4.049554,0.606298 -0.985174,0.18689 -2.028402,0.416042 -3.02767,0.254963 z"
         style="fill:#68cff7;fill-opacity:1;stroke:#000000;stroke-width:1.95366768;stroke-opacity:1;paint-order:markers stroke fill;stroke-dasharray:none"
         id="path1-6-6"
         inkscape:label="snail"
         inkscape:export-filename="snail_shape.png"
         inkscape:export-xdpi="300"
         inkscape:export-ydpi="300" />
      <path
         d="m 84.186751,26.775705 c -0.913465,-0.860361 0.969485,-1.546754 1.472291,-2.097491 0.508051,-0.655944 2.462791,-1.286815 1.817161,-2.145361 -1.571235,-1.947942 -1.252291,-4.824547 -0.09147,-6.894607 1.24062,-2.119966 3.680108,-3.243109 6.019857,-3.646599 2.89625,-0.229025 5.859588,0.880751 8.01598,2.802074 1.34688,1.399282 2.49058,3.086434 2.84219,5.029479 0.3599,0.920319 -0.0509,2.49356 1.15643,2.801323 1.00161,0.569033 2.26134,0.499339 3.33837,0.225234 0.97366,-0.779339 1.96241,-1.563176 2.85625,-2.437322 -0.0606,-1.013341 1.46949,-0.816527 0.87281,0.07493 -1.07576,0.865365 -1.88869,2.042092 -2.79656,3.06049 0.95866,0.554852 1.89454,-0.88051 2.78365,-1.21054 0.49731,-0.326645 1.82496,-1.685556 1.88381,-0.38291 -0.91092,0.59688 -1.88861,1.231985 -2.76179,1.941267 -0.92524,0.500718 -1.10289,0.987813 -0.15994,1.507568 -0.35265,0.216596 -1.14802,-0.212215 -0.26481,0.32401 0.85687,0.510774 -0.32089,0.61795 -0.71987,0.214102 -1.82654,0.901139 -3.96572,0.92941 -5.96986,0.827917 -1.2851,-0.187837 -2.41165,-1.01975 -3.75622,-0.802188 -1.7539,0.09004 -3.512132,-0.393867 -5.248347,0.02352 -1.40649,0.165709 -2.815891,-0.477009 -4.212709,-0.07616 -1.356648,0.177445 -2.763134,0.08011 -4.049554,0.606298 -0.985174,0.18689 -2.028402,0.416042 -3.02767,0.254963 z"
         style="fill:#68cff7;fill-opacity:1;stroke:#000000;stroke-width:1.95366768;stroke-opacity:1;stroke-dasharray:none;paint-order:markers stroke fill"
         id="path1-6-6-5"
         inkscape:label="snail"
         inkscape:export-filename="snail_shape.png"
         inkscape:export-xdpi="300"
         inkscape:export-ydpi="300" />
      <path
         style="fill:#00a0ff;fill-opacity:1;stroke:#000000;stroke-width:1.95366768;stroke-opacity:1;paint-order:markers stroke fill;stroke-dasharray:none"
         d="m 10.008839,66.872968 c -1.8560434,-0.310054 1.125647,-1.266729 1.668378,-1.592035 1.840691,-0.743306 3.646397,-1.583872 5.512472,-2.258544 2.888231,-0.774213 5.868577,-1.110012 8.80448,-1.640381 3.302863,-0.187877 6.642007,-0.10157 9.885091,0.606522 1.618763,0.316174 3.273182,0.680601 4.572962,1.764553 1.104101,0.754876 2.578263,0.999939 3.749345,0.248828 0.892173,-0.08255 2.108026,-1.740213 2.743466,-0.95592 -0.568295,0.696298 -2.544342,1.024046 -2.722494,1.692493 1.42565,-0.01958 2.857894,-0.168606 4.257742,-0.37981 0.404608,1.203478 -1.862818,0.411391 -2.587134,0.776398 -0.713397,-0.129113 -2.671322,0.450481 -0.979866,0.729465 0.92523,0.179603 -0.06034,0.534282 -0.328709,0.354361 1.01721,0.09421 0.378275,0.927915 -0.243647,0.329028 -1.412134,0.105885 -2.840084,0.447142 -4.288352,0.342241 -10.014375,0.0013 -20.029879,-0.07035 -30.043734,-0.0172 z"
         id="path1"
         inkscape:label="slug"
         inkscape:export-filename="slug_shape.png"
         inkscape:export-xdpi="300"
         inkscape:export-ydpi="300" />
      <defs
         id="defs10">
        <filter
           x="0"
           y="0"
           width="1"
           height="1"
           id="filter1">
          <feFlood
             flood-color="white"
             id="feFlood1" />
          <feComposite
             in="SourceGraphic"
             id="feComposite1" />
        </filter>
      </defs>
      <circle
         style="font-variation-settings:normal;opacity:1;fill:#000000;fill-opacity:1;fill-rule:evenodd;stroke:#ffffff;stroke-width:1.11638153;stroke-linecap:butt;stroke-linejoin:miter;stroke-miterlimit:4;stroke-dasharray:none;stroke-dashoffset:0;stroke-opacity:1;stop-color:#000000;stop-opacity:1"
         id="path15"
         cx="66.951012"
         cy="78.080826"
         r="3" />
    </g>
  </g>
</svg>
